<svg width="29" height="32" viewBox="0 0 29 32" fill="none" xmlns="http://www.w3.org/2000/svg">
<path d="M28.6088 21.6168C27.3501 19.4052 26.6816 16.2308 26.6816 12.4431C26.6816 9.14295 25.3982 5.97801 23.1138 3.64449C20.8294 1.31096 17.731 0 14.5004 0C11.2697 0 8.17136 1.31096 5.88694 3.64449C3.60252 5.97801 2.31914 9.14295 2.31914 12.4431C2.31914 16.2323 1.65352 19.4052 0.394797 21.6168C0.137949 22.0679 0.00179949 22.5801 1.77159e-05 23.102C-0.00176406 23.6238 0.130885 24.1369 0.384646 24.5898C0.636802 25.043 1.00279 25.4192 1.44483 25.6796C1.88687 25.94 2.38894 26.0752 2.8992 26.0712H8.14583C8.28972 27.6912 9.02145 29.1977 10.1972 30.2947C11.373 31.3917 12.9079 32 14.5004 32C16.0928 32 17.6277 31.3917 18.8035 30.2947C19.9793 29.1977 20.711 27.6912 20.8549 26.0712H26.1015C26.6111 26.0744 27.1122 25.9388 27.5534 25.6785C27.9946 25.4181 28.36 25.0423 28.6117 24.5898C28.8666 24.1376 29.0005 23.6248 29 23.103C28.9995 22.5811 28.8646 22.0686 28.6088 21.6168ZM14.5004 28.4413C13.8318 28.4414 13.1836 28.2056 12.6657 27.7737C12.1478 27.3418 11.7918 26.7403 11.6581 26.0712H17.3427C17.2089 26.7403 16.853 27.3418 16.335 27.7737C15.8171 28.2056 15.169 28.4414 14.5004 28.4413ZM3.865 22.516C5.14838 19.8496 5.79949 16.4633 5.79949 12.4431C5.79949 10.0858 6.71619 7.82517 8.34792 6.15836C9.97965 4.49156 12.1928 3.55516 14.5004 3.55516C16.808 3.55516 19.0211 4.49156 20.6528 6.15836C22.2846 7.82517 23.2013 10.0858 23.2013 12.4431C23.2013 16.4619 23.8509 19.8496 25.1343 22.516H3.865Z" fill="#999999"/>
</svg>
